<?xml version="1.0" standalone="no"?>
<!DOCTYPE svg PUBLIC "-//W3C//DTD SVG 20010904//EN"
 "http://www.w3.org/TR/2001/REC-SVG-20010904/DTD/svg10.dtd">
<svg version="1.0" xmlns="http://www.w3.org/2000/svg"
 width="678.000000pt" height="678.000000pt" viewBox="0 0 678.000000 678.000000"
 preserveAspectRatio="xMidYMid meet">
<metadata>
Created by potrace 1.14, written by Peter Selinger 2001-2017
</metadata>
<g transform="translate(0.000000,678.000000) scale(0.100000,-0.100000)"
fill="#000000" stroke="none">
<path d="M3247 4234 c-266 -160 -589 -455 -810 -742 -272 -352 -479 -781 -587
-1217 -17 -71 -36 -138 -41 -148 -5 -10 -7 -22 -4 -26 3 -5 -3 -7 -12 -5 -10
2 -45 -11 -78 -31 -33 -19 -55 -35 -50 -35 13 -1 -66 -50 -80 -50 -5 0 -3 5 5
10 13 8 12 10 -4 10 -13 0 -17 -5 -14 -18 4 -12 -1 -18 -13 -18 -14 0 -16 3
-6 15 8 10 3 8 -15 -3 -26 -17 -41 -35 -16 -20 6 4 8 3 5 -4 -4 -5 -16 -8 -26
-5 -10 3 -22 -1 -27 -8 -5 -9 -2 -10 10 -6 10 4 15 3 11 -3 -3 -6 -15 -10 -26
-10 -11 0 -22 -6 -25 -14 -3 -8 -12 -12 -20 -9 -8 3 -11 10 -7 17 3 6 0 5 -8
-2 -11 -11 -12 -14 -1 -21 10 -6 9 -10 -7 -14 -19 -5 -21 -12 -21 -97 0 -52 7
-119 16 -154 41 -157 162 -309 305 -379 127 -62 178 -68 538 -65 l316 3 53 29
c60 33 101 76 134 139 23 41 23 48 28 522 5 465 6 482 26 526 28 60 93 125
153 153 44 20 58 21 426 21 375 0 381 0 422 -23 66 -35 110 -79 140 -140 l28
-57 5 -475 5 -475 28 -57 c30 -61 74 -105 140 -140 41 -22 52 -23 357 -26 360
-4 407 2 529 59 111 52 221 159 275 269 69 141 68 120 63 1119 -3 788 -6 905
-20 971 -19 84 -53 191 -74 233 -12 24 -16 26 -36 16 -12 -7 -25 -17 -29 -23
-5 -7 -8 -3 -8 9 0 18 -1 18 -15 -2 -10 -14 -21 -20 -32 -16 -10 4 -14 2 -10
-4 7 -11 -39 -40 -49 -31 -3 4 4 9 15 13 12 3 21 10 21 15 0 15 -47 -14 -57
-35 -5 -11 -7 -14 -6 -6 3 12 0 11 -15 -2 -10 -9 -22 -14 -27 -10 -4 5 -5 0
-2 -9 7 -19 -8 -25 -18 -8 -8 13 -64 -15 -72 -36 -3 -7 -9 -14 -15 -14 -5 0
-6 5 -2 12 4 7 3 8 -5 4 -6 -4 -9 -10 -7 -14 2 -4 -2 -13 -10 -20 -11 -10 -14
-10 -14 0 -1 7 -10 2 -22 -12 -13 -15 -19 -18 -15 -8 4 12 2 15 -8 11 -8 -3
-13 -9 -10 -13 5 -8 -50 -46 -89 -63 -19 -8 -19 -7 -2 12 18 20 18 20 -8 8
-14 -7 -24 -18 -21 -25 3 -9 -3 -11 -23 -6 -21 4 -24 3 -12 -5 13 -9 13 -11
-2 -11 -10 0 -18 -5 -18 -11 0 -8 -4 -8 -14 0 -11 9 -16 9 -22 0 -5 -8 -3 -10
7 -5 8 4 5 0 -5 -8 -16 -13 -47 -16 -155 -16 -397 0 -812 -105 -1171 -297
-173 -92 -161 -87 -171 -72 -5 8 -9 9 -9 4 0 -6 -9 -16 -19 -22 -16 -10 -19
-9 -17 3 1 9 7 19 12 22 5 4 9 14 9 22 0 8 6 14 13 13 11 -3 17 27 13 70 -1 9
3 17 10 17 8 0 8 5 -2 16 -11 14 -10 18 5 30 11 7 24 11 30 7 6 -3 0 6 -13 20
-21 23 -22 27 -8 33 9 3 23 16 31 29 15 23 15 24 -6 20 -29 -6 -35 -14 -18
-25 9 -6 10 -10 3 -10 -18 0 -26 19 -13 35 6 7 10 19 9 27 -3 26 1 39 11 33 6
-3 10 -1 10 5 0 6 5 8 13 4 8 -5 8 -2 -2 9 -10 12 -10 17 -2 17 7 0 19 7 27
15 10 10 11 15 4 15 -7 0 -10 7 -7 15 4 8 1 17 -6 21 -7 4 -9 4 -5 -1 10 -11
-11 -47 -22 -40 -6 3 -7 -1 -4 -9 4 -10 1 -16 -7 -16 -11 0 -11 -3 1 -10 9 -6
10 -10 3 -10 -16 0 -26 17 -13 25 6 4 8 11 5 16 -4 5 1 12 9 15 9 3 16 15 16
25 0 10 6 19 13 19 9 0 9 2 -1 9 -11 7 -10 9 3 15 16 6 16 49 0 75 -3 7 0 8 9
5 9 -3 13 -11 9 -18 -3 -6 0 -5 8 2 12 11 12 14 -1 23 -13 8 -12 12 5 26 16
12 16 14 3 10 -10 -3 -20 -1 -24 5 -4 7 -3 8 4 4 7 -4 12 -2 12 4 0 6 5 8 10
5 6 -3 10 -1 10 4 0 20 3 26 19 38 13 9 10 10 -13 6 -21 -4 -27 -2 -22 6 4 6
12 8 18 5 6 -4 6 1 -1 14 -14 26 -14 42 -1 42 5 0 7 -8 4 -17 -5 -15 -4 -15 4
-3 7 9 8 18 1 26 -8 9 -4 11 13 7 13 -3 19 -1 12 4 -20 16 -24 43 -6 43 13 0
14 2 3 9 -9 6 -10 11 -2 15 16 10 14 26 -2 20 -13 -5 -14 7 -8 59 1 5 6 5 11
2 6 -3 10 0 10 9 0 8 -6 17 -12 20 -7 4 -4 5 8 2 12 -2 21 2 21 10 0 7 -5 10
-11 7 -6 -4 -5 0 1 9 15 18 5 32 -12 18 -8 -6 -6 3 4 23 10 21 19 30 23 23 5
-7 8 -4 8 7 0 12 4 16 13 11 8 -5 8 -3 -2 9 -11 14 -11 18 2 23 8 3 14 13 13
22 -2 9 4 22 12 28 12 9 12 11 1 11 -8 0 -53 -24 -102 -53z m-17 -432 c0 -5
-7 -9 -15 -9 -8 0 -12 4 -9 9 3 4 9 8 15 8 5 0 9 -4 9 -8z m1770 -70 c0 -4
-13 -13 -30 -19 -38 -14 -39 -8 -2 11 32 18 32 18 32 8z m-3226 -1657 c-10 -8
-26 -14 -34 -15 -8 0 -4 6 10 14 34 19 48 20 24 1z m-70 -39 c-10 -8 -21 -12
-23 -10 -3 2 4 11 15 18 10 8 21 12 23 10 3 -2 -4 -11 -15 -18z"/>
<path d="M3292 4148 c2 -6 12 -12 22 -14 14 -2 15 0 5 12 -14 17 -32 19 -27 2z"/>
<path d="M3273 4025 c0 -8 4 -12 9 -9 5 3 6 10 3 15 -9 13 -12 11 -12 -6z"/>
<path d="M5224 3865 c-10 -8 -14 -15 -8 -15 6 0 17 7 24 15 16 19 9 19 -16 0z"/>
<path d="M5160 3829 c0 -5 5 -7 10 -4 6 3 10 8 10 11 0 2 -4 4 -10 4 -5 0 -10
-5 -10 -11z"/>
<path d="M4785 3640 c-3 -5 -2 -10 4 -10 5 0 13 5 16 10 3 6 2 10 -4 10 -5 0
-13 -4 -16 -10z"/>
<path d="M3166 3462 c-3 -5 1 -9 9 -9 8 0 12 4 9 9 -3 4 -7 8 -9 8 -2 0 -6 -4
-9 -8z"/>
<path d="M3150 3366 c7 -7 13 -7 20 0 6 6 3 10 -10 10 -13 0 -16 -4 -10 -10z"/>
<path d="M3130 3308 c0 -4 4 -8 9 -8 6 0 12 4 15 8 3 5 -1 9 -9 9 -8 0 -15 -4
-15 -9z"/>
<path d="M3137 3173 c-4 -3 -7 -11 -7 -17 0 -6 5 -5 12 2 6 6 9 14 7 17 -3 3
-9 2 -12 -2z"/>
<path d="M1628 2023 c-10 -2 -18 -9 -18 -14 0 -6 8 -5 20 1 11 6 20 13 20 15
0 3 -1 4 -2 4 -2 -1 -11 -3 -20 -6z"/>
<path d="M1440 1930 c-8 -5 -12 -12 -9 -15 4 -3 12 1 19 10 14 17 11 19 -10 5z"/>
</g>
</svg>
